<svg width="24" height="24" viewBox="0 0 24 24" fill="none" xmlns="http://www.w3.org/2000/svg">
<path d="M11.4211 0.75H11.6711V1V11.4211V11.6711H11.4211H1H0.75V11.4211V10.2632C0.75 7.74011 1.75228 5.3204 3.53634 3.53634C5.3204 1.75228 7.74011 0.75 10.2632 0.75H11.4211ZM4.22368 13.7368V13.4868H4.47368H13.4868V4.47368V4.22368H13.7368C15.6184 4.22368 17.4576 4.78162 19.0221 5.82694C20.5865 6.87226 21.8058 8.35801 22.5258 10.0963C23.2459 11.8346 23.4343 13.7474 23.0672 15.5928C22.7001 17.4381 21.7941 19.1332 20.4637 20.4637C19.1332 21.7941 17.4381 22.7001 15.5928 23.0672C13.7474 23.4343 11.8346 23.2459 10.0963 22.5259C8.35801 21.8058 6.87226 20.5865 5.82694 19.0221C4.78162 17.4576 4.22368 15.6184 4.22368 13.7368ZM15.1447 14.8947V15.1447H14.8947H6.00673C6.32715 16.9025 7.23811 18.5019 8.59329 19.6752C10.0214 20.9117 11.8473 21.5922 13.7363 21.5921C15.7199 21.5878 17.6285 20.8334 19.079 19.4804C20.5295 18.1273 21.4146 16.2757 21.5567 14.2972C21.6987 12.3186 21.0872 10.3596 19.8448 8.81322C18.6631 7.34238 16.9939 6.34841 15.1447 6.00734V14.8947ZM4.70865 4.70865C3.29453 6.12277 2.47526 8.02053 2.41187 10.0132H10.0132V2.41187C8.02053 2.47526 6.12277 3.29453 4.70865 4.70865Z" fill="#4F4F4F" stroke="#4F4F4F" stroke-width="0.5"/>
</svg>
