<svg width="20" height="20" viewBox="0 0 20 20" fill="none" xmlns="http://www.w3.org/2000/svg">
<path d="M4.67247 0.155091L0.240704 3.19098C-0.267598 3.5283 0.0818595 4.11589 0.79666 4.11589H3.63998V10.6556C3.63998 11.254 4.35478 11.7437 5.22842 11.7437C6.10207 11.7437 6.81687 11.254 6.81687 10.6556V4.11589H9.66018C10.375 4.11589 10.7244 3.5283 10.2161 3.19098L5.78438 0.155091C5.63572 0.0556611 5.43619 0 5.22842 0C5.02065 0 4.82113 0.0556611 4.67247 0.155091ZM16.3475 15.019V8.47931C16.3475 7.88083 15.6327 7.39117 14.7591 7.39117C13.8854 7.39117 13.1706 7.88083 13.1706 8.47931V15.019H10.3273C9.61253 15.019 9.26307 15.6066 9.77138 15.9439L14.2031 18.9689C14.5208 19.1756 15.0132 19.1756 15.3309 18.9689L19.7627 15.9439C20.271 15.6066 19.9057 15.019 19.2067 15.019H16.3475Z" fill="#4F4F4F"/>
</svg>
