<svg width="12" height="16" viewBox="0 0 12 16" fill="none" xmlns="http://www.w3.org/2000/svg">
<path d="M4 9C4 9.26522 3.89464 9.51957 3.70711 9.70711C3.51957 9.89464 3.26522 10 3 10C2.73478 10 2.48043 9.89464 2.29289 9.70711C2.10536 9.51957 2 9.26522 2 9C2 8.73478 2.10536 8.48043 2.29289 8.29289C2.48043 8.10536 2.73478 8 3 8C3.26522 8 3.51957 8.10536 3.70711 8.29289C3.89464 8.48043 4 8.73478 4 9Z" fill="white"/>
<path d="M4 12C4 12.2652 3.89464 12.5196 3.70711 12.7071C3.51957 12.8946 3.26522 13 3 13C2.73478 13 2.48043 12.8946 2.29289 12.7071C2.10536 12.5196 2 12.2652 2 12C2 11.7348 2.10536 11.4804 2.29289 11.2929C2.48043 11.1054 2.73478 11 3 11C3.26522 11 3.51957 11.1054 3.70711 11.2929C3.89464 11.4804 4 11.7348 4 12Z" fill="white"/>
<path d="M9 10C9.26522 10 9.51957 9.89464 9.70711 9.70711C9.89464 9.51957 10 9.26522 10 9C10 8.73478 9.89464 8.48043 9.70711 8.29289C9.51957 8.10536 9.26522 8 9 8C8.73478 8 8.48043 8.10536 8.29289 8.29289C8.10536 8.48043 8 8.73478 8 9C8 9.26522 8.10536 9.51957 8.29289 9.70711C8.48043 9.89464 8.73478 10 9 10Z" fill="white"/>
<path d="M10 12C10 12.2652 9.89464 12.5196 9.70711 12.7071C9.51957 12.8946 9.26522 13 9 13C8.73478 13 8.48043 12.8946 8.29289 12.7071C8.10536 12.5196 8 12.2652 8 12C8 11.7348 8.10536 11.4804 8.29289 11.2929C8.48043 11.1054 8.73478 11 9 11C9.26522 11 9.51957 11.1054 9.70711 11.2929C9.89464 11.4804 10 11.7348 10 12Z" fill="white"/>
<path d="M6 10C6.26522 10 6.51957 9.89464 6.70711 9.70711C6.89464 9.51957 7 9.26522 7 9C7 8.73478 6.89464 8.48043 6.70711 8.29289C6.51957 8.10536 6.26522 8 6 8C5.73478 8 5.48043 8.10536 5.29289 8.29289C5.10536 8.48043 5 8.73478 5 9C5 9.26522 5.10536 9.51957 5.29289 9.70711C5.48043 9.89464 5.73478 10 6 10Z" fill="white"/>
<path d="M7 12C7 12.2652 6.89464 12.5196 6.70711 12.7071C6.51957 12.8946 6.26522 13 6 13C5.73478 13 5.48043 12.8946 5.29289 12.7071C5.10536 12.5196 5 12.2652 5 12C5 11.7348 5.10536 11.4804 5.29289 11.2929C5.48043 11.1054 5.73478 11 6 11C6.26522 11 6.51957 11.1054 6.70711 11.2929C6.89464 11.4804 7 11.7348 7 12Z" fill="white"/>
<path d="M3.5 2C3.10218 2 2.72064 2.15804 2.43934 2.43934C2.15804 2.72064 2 3.10218 2 3.5V4.5C2 4.89782 2.15804 5.27936 2.43934 5.56066C2.72064 5.84196 3.10218 6 3.5 6H8.5C8.89782 6 9.27936 5.84196 9.56066 5.56066C9.84196 5.27936 10 4.89782 10 4.5V3.5C10 3.10218 9.84196 2.72064 9.56066 2.43934C9.27936 2.15804 8.89782 2 8.5 2H3.5ZM3 3.5C3 3.36739 3.05268 3.24021 3.14645 3.14645C3.24021 3.05268 3.36739 3 3.5 3H8.5C8.63261 3 8.75979 3.05268 8.85355 3.14645C8.94732 3.24021 9 3.36739 9 3.5V4.5C9 4.63261 8.94732 4.75979 8.85355 4.85355C8.75979 4.94732 8.63261 5 8.5 5H3.5C3.36739 5 3.24021 4.94732 3.14645 4.85355C3.05268 4.75979 3 4.63261 3 4.5V3.5Z" fill="white"/>
<path d="M12 13.5C12 14.163 11.7366 14.7989 11.2678 15.2678C10.7989 15.7366 10.163 16 9.5 16H2.5C1.83696 16 1.20107 15.7366 0.732233 15.2678C0.263392 14.7989 0 14.163 0 13.5V2.5C0 1.83696 0.263392 1.20107 0.732233 0.732233C1.20107 0.263392 1.83696 0 2.5 0H9.5C10.163 0 10.7989 0.263392 11.2678 0.732233C11.7366 1.20107 12 1.83696 12 2.5V13.5ZM11 2.5C11 2.10218 10.842 1.72064 10.5607 1.43934C10.2794 1.15804 9.89782 1 9.5 1H2.5C2.10218 1 1.72064 1.15804 1.43934 1.43934C1.15804 1.72064 1 2.10218 1 2.5V13.5C1 13.8978 1.15804 14.2794 1.43934 14.5607C1.72064 14.842 2.10218 15 2.5 15H9.5C9.89782 15 10.2794 14.842 10.5607 14.5607C10.842 14.2794 11 13.8978 11 13.5V2.5Z" fill="white"/>
</svg>
