<svg width="36" height="37" viewBox="0 0 36 37" fill="none" xmlns="http://www.w3.org/2000/svg">
<path d="M4.77611 0C5.96668 0.00105828 7.10812 0.474751 7.94961 1.31698C8.79109 2.15922 9.26377 3.30108 9.26377 4.49165V31.4415C9.28169 32.0424 9.17882 32.6407 8.96125 33.2011C8.74369 33.7615 8.41586 34.2725 7.99719 34.7038C7.57851 35.1351 7.07751 35.4781 6.52388 35.7122C5.97025 35.9464 5.37524 36.0671 4.77412 36.0671C4.173 36.0671 3.57799 35.9464 3.02436 35.7122C2.47072 35.4781 1.96972 35.1351 1.55105 34.7038C1.13238 34.2725 0.804545 33.7615 0.586981 33.2011C0.369417 32.6407 0.266547 32.0424 0.284467 31.4415V4.49165C0.284467 3.30039 0.757693 2.15792 1.60004 1.31557C2.44239 0.473226 3.58486 0 4.77611 0ZM17.752 7.98515C18.9426 7.98621 20.084 8.4599 20.9255 9.30213C21.767 10.1444 22.2396 11.2862 22.2396 12.4768V31.4415C22.2576 32.0424 22.1547 32.6407 21.9371 33.2011C21.7196 33.7615 21.3917 34.2725 20.9731 34.7038C20.5544 35.1351 20.0534 35.4781 19.4998 35.7122C18.9461 35.9464 18.3511 36.0671 17.75 36.0671C17.1489 36.0671 16.5539 35.9464 16.0002 35.7122C15.4466 35.4781 14.9456 35.1351 14.5269 34.7038C14.1082 34.2725 13.7804 33.7615 13.5628 33.2011C13.3453 32.6407 13.2424 32.0424 13.2603 31.4415V12.4768C13.2603 11.2855 13.7336 10.1431 14.5759 9.30072C15.4183 8.45838 16.5607 7.98515 17.752 7.98515ZM30.7279 15.9703C31.9184 15.9714 33.0599 16.4451 33.9013 17.2873C34.7428 18.1295 35.2155 19.2714 35.2155 20.4619V31.4415C35.2334 32.0424 35.1306 32.6407 34.913 33.2011C34.6954 33.7615 34.3676 34.2725 33.9489 34.7038C33.5303 35.1351 33.0293 35.4781 32.4756 35.7122C31.922 35.9464 31.327 36.0671 30.7259 36.0671C30.1247 36.0671 29.5297 35.9464 28.9761 35.7122C28.4225 35.4781 27.9215 35.1351 27.5028 34.7038C27.0841 34.2725 26.7563 33.7615 26.5387 33.2011C26.3212 32.6407 26.2183 32.0424 26.2362 31.4415V20.4619C26.2359 19.872 26.3519 19.2878 26.5776 18.7428C26.8032 18.1977 27.1341 17.7024 27.5512 17.2853C27.9683 16.8681 28.4636 16.5373 29.0087 16.3117C29.5537 16.086 30.1379 15.97 30.7279 15.9703Z" fill="#40BA93"/>
</svg>
