<svg width="18" height="17" viewBox="0 0 18 17" fill="none" xmlns="http://www.w3.org/2000/svg">
<path d="M17.1733 10.4269C16.8005 10.2874 16.4601 10.073 16.1733 9.79689C15.5179 9.06847 14.9645 8.25435 14.5283 7.37689L16.2233 4.73189C16.2641 4.67149 16.2897 4.60208 16.2977 4.52963C16.3057 4.45719 16.2961 4.38387 16.2695 4.31599C16.2429 4.24811 16.2003 4.1877 16.1452 4.13995C16.0901 4.09221 16.0243 4.05855 15.9533 4.04189C15.0815 3.92638 14.1947 4.05084 13.3883 4.40189C12.8179 4.65197 12.2899 4.98935 11.8233 5.40189C10.9283 4.96199 9.96422 4.67953 8.97333 4.56689C5.57333 4.25189 2.30833 6.44189 1.94333 9.49189L1.87333 9.45689C1.6983 9.37966 1.54125 9.26688 1.41214 9.12572C1.28303 8.98455 1.18467 8.81809 1.12333 8.63689C1.08337 8.50926 1.06942 8.37491 1.0823 8.24179C1.09518 8.10867 1.13464 7.97949 1.19833 7.86189C1.25465 7.76296 1.33561 7.68028 1.43333 7.62189C1.49406 7.58512 1.54696 7.53674 1.589 7.47953C1.63104 7.42232 1.66141 7.35738 1.67835 7.28843C1.6953 7.21949 1.6985 7.14788 1.68777 7.07769C1.67704 7.00751 1.6526 6.94012 1.61583 6.87939C1.57906 6.81865 1.53068 6.76575 1.47347 6.72371C1.41625 6.68167 1.35132 6.65131 1.28237 6.63436C1.21343 6.61741 1.14182 6.61421 1.07163 6.62494C1.00145 6.63567 0.934062 6.66012 0.873326 6.69689C0.617915 6.84877 0.406071 7.06406 0.258326 7.32189C0.123277 7.56694 0.0390569 7.83671 0.0107057 8.11507C-0.0176456 8.39343 0.0104551 8.67464 0.0933259 8.94189C0.19441 9.26608 0.360482 9.56628 0.58141 9.82417C0.802338 10.0821 1.07349 10.2922 1.37833 10.4419L1.87833 10.7119C1.95825 11.9842 2.29861 13.2265 2.87833 14.3619C3.27796 15.2189 3.78176 16.0233 4.37833 16.7569C4.42593 16.8172 4.48678 16.8656 4.55614 16.8986C4.62551 16.9315 4.70154 16.9481 4.77833 16.9469H6.58333C6.62466 16.9417 6.66415 16.9267 6.69848 16.9031C6.7328 16.8795 6.76095 16.848 6.78055 16.8112C6.80015 16.7745 6.81064 16.7336 6.81112 16.6919C6.8116 16.6502 6.80207 16.6091 6.78333 16.5719L6.67333 16.1819C6.60741 15.9884 6.55232 15.7915 6.50833 15.5919C6.96333 15.6719 7.54833 15.7469 7.94333 15.7819C8.46254 15.8224 8.98411 15.8224 9.50333 15.7819C9.69833 16.1319 9.89832 16.4469 10.0783 16.7069C10.1208 16.7699 10.1782 16.8216 10.2453 16.8573C10.3124 16.8931 10.3873 16.9118 10.4633 16.9119H12.0183C12.0692 16.9112 12.1192 16.8986 12.1644 16.8751C12.2095 16.8516 12.2485 16.8178 12.2781 16.7764C12.3078 16.7351 12.3274 16.6873 12.3352 16.637C12.3431 16.5867 12.339 16.5353 12.3233 16.4869C12.2083 16.1169 12.0583 15.6119 11.9683 15.3019C12.629 15.0916 13.2594 14.7957 13.8433 14.4219C13.9233 14.3669 14.0033 14.2919 14.0833 14.2269C13.665 14.099 13.2599 13.9316 12.8733 13.7269C12.7792 13.6778 12.7084 13.5934 12.6765 13.4921C12.6446 13.3908 12.6543 13.281 12.7033 13.1869C12.7524 13.0927 12.8368 13.0219 12.9381 12.9901C13.0394 12.9582 13.1492 12.9678 13.2433 13.0169C13.7439 13.2763 14.2795 13.4615 14.8333 13.5669C15.2768 13.632 15.7258 13.6521 16.1733 13.6269C16.2726 13.6228 16.3685 13.5893 16.4486 13.5305C16.5288 13.4717 16.5896 13.3904 16.6233 13.2969L17.4883 11.0769C17.5118 11.0136 17.5223 10.9463 17.5191 10.8788C17.5159 10.8114 17.499 10.7454 17.4696 10.6846C17.4402 10.6239 17.3987 10.5698 17.3478 10.5255C17.2969 10.4812 17.2376 10.4476 17.1733 10.4269ZM6.56833 6.78689C6.52021 6.80407 6.46941 6.81253 6.41833 6.81189C6.32004 6.81034 6.22533 6.77476 6.15033 6.71122C6.07532 6.64768 6.02466 6.56011 6.00697 6.46342C5.98928 6.36672 6.00566 6.26688 6.05332 6.18091C6.10097 6.09493 6.17695 6.02813 6.26833 5.99189C7.33689 5.59468 8.49423 5.49954 9.61333 5.71689C9.67097 5.72359 9.72663 5.74202 9.77687 5.77106C9.82712 5.80009 9.87089 5.8391 9.90548 5.88569C9.94007 5.93229 9.96476 5.98547 9.97801 6.04197C9.99127 6.09846 9.99281 6.15707 9.98255 6.21419C9.97229 6.27131 9.95045 6.32572 9.91835 6.37407C9.88626 6.42242 9.84461 6.46368 9.79597 6.49532C9.74732 6.52696 9.69271 6.5483 9.6355 6.55803C9.57829 6.56776 9.5197 6.56567 9.46333 6.55189C8.49504 6.36307 7.49347 6.44437 6.56833 6.78689ZM12.8283 9.84689C12.6859 9.84689 12.5467 9.80466 12.4283 9.72555C12.3099 9.64643 12.2176 9.53398 12.1631 9.40242C12.1086 9.27086 12.0944 9.12609 12.1222 8.98642C12.1499 8.84676 12.2185 8.71846 12.3192 8.61777C12.4199 8.51708 12.5482 8.4485 12.6879 8.42072C12.8275 8.39294 12.9723 8.4072 13.1039 8.46169C13.2354 8.51619 13.3479 8.60847 13.427 8.72688C13.5061 8.84528 13.5483 8.98449 13.5483 9.12689C13.549 9.22144 13.531 9.3152 13.4954 9.4028C13.4599 9.49041 13.4074 9.57015 13.341 9.63747C13.2746 9.7048 13.1956 9.75838 13.1085 9.79517C13.0214 9.83196 12.9279 9.85123 12.8333 9.85189L12.8283 9.84689Z" fill="white"/>
<circle cx="7" cy="4" r="4" fill="#40BA93"/>
<circle cx="7" cy="4" r="3" fill="white"/>
<path d="M7.59961 5.25781C7.59961 5.14714 7.56445 5.05599 7.49414 4.98438C7.42383 4.91146 7.30664 4.84635 7.14258 4.78906C6.97852 4.73047 6.85091 4.67643 6.75977 4.62695C6.45638 4.46419 6.30469 4.22331 6.30469 3.9043C6.30469 3.68815 6.37044 3.51042 6.50195 3.37109C6.63346 3.23177 6.81185 3.14909 7.03711 3.12305V2.69727H7.34961V3.12695C7.57617 3.15951 7.7513 3.25586 7.875 3.41602C7.9987 3.57487 8.06055 3.7819 8.06055 4.03711H7.58789C7.58789 3.87305 7.55078 3.74414 7.47656 3.65039C7.40365 3.55534 7.30404 3.50781 7.17773 3.50781C7.05273 3.50781 6.95508 3.54167 6.88477 3.60938C6.81445 3.67708 6.7793 3.77409 6.7793 3.90039C6.7793 4.01367 6.8138 4.10482 6.88281 4.17383C6.95312 4.24154 7.07161 4.30599 7.23828 4.36719C7.40495 4.42839 7.53581 4.48503 7.63086 4.53711C7.72591 4.58919 7.80599 4.64909 7.87109 4.7168C7.9362 4.7832 7.98633 4.86003 8.02148 4.94727C8.05664 5.03451 8.07422 5.13672 8.07422 5.25391C8.07422 5.47396 8.00651 5.65234 7.87109 5.78906C7.73698 5.92578 7.54948 6.00651 7.30859 6.03125V6.41211H6.99805V6.0332C6.74023 6.00456 6.54167 5.91211 6.40234 5.75586C6.26432 5.59961 6.19531 5.39258 6.19531 5.13477H6.66992C6.66992 5.29883 6.71094 5.42578 6.79297 5.51562C6.8763 5.60547 6.99349 5.65039 7.14453 5.65039C7.29297 5.65039 7.4056 5.61458 7.48242 5.54297C7.56055 5.47135 7.59961 5.3763 7.59961 5.25781Z" fill="#40BA93"/>
</svg>
