<svg width="100" height="100" viewBox="0 0 35 38" fill="none" xmlns="http://www.w3.org/2000/svg">
    <path d="M25.1733 19.4269C24.8005 19.2874 24.4601 19.073 24.1733 18.7969C23.5179 18.0685 22.9645 17.2544 22.5283 16.3769L24.2233 13.7319C24.2641 13.6715 24.2897 13.6021 24.2977 13.5296C24.3057 13.4572 24.2961 13.3839 24.2695 13.316C24.2429 13.2481 24.2003 13.1877 24.1452 13.14C24.0901 13.0922 24.0243 13.0586 23.9533 13.0419C23.0815 12.9264 22.1947 13.0508 21.3883 13.4019C20.8179 13.652 20.2899 13.9893 19.8233 14.4019C18.9283 13.962 17.9642 13.6795 16.9733 13.5669C13.5733 13.2519 10.3083 15.4419 9.94333 18.4919L9.87333 18.4569C9.6983 18.3797 9.54125 18.2669 9.41214 18.1257C9.28303 17.9846 9.18467 17.8181 9.12333 17.6369C9.08337 17.5093 9.06942 17.3749 9.0823 17.2418C9.09518 17.1087 9.13464 16.9795 9.19833 16.8619C9.25465 16.763 9.33561 16.6803 9.43333 16.6219C9.49406 16.5851 9.54696 16.5367 9.589 16.4795C9.63104 16.4223 9.66141 16.3574 9.67835 16.2884C9.6953 16.2195 9.6985 16.1479 9.68777 16.0777C9.67704 16.0075 9.6526 15.9401 9.61583 15.8794C9.57906 15.8187 9.53068 15.7658 9.47347 15.7237C9.41625 15.6817 9.35132 15.6513 9.28237 15.6344C9.21343 15.6174 9.14182 15.6142 9.07163 15.6249C9.00145 15.6357 8.93406 15.6601 8.87333 15.6969C8.61791 15.8488 8.40607 16.0641 8.25833 16.3219C8.12328 16.5669 8.03906 16.8367 8.01071 17.1151C7.98235 17.3934 8.01046 17.6746 8.09333 17.9419C8.19441 18.2661 8.36048 18.5663 8.58141 18.8242C8.80234 19.0821 9.07349 19.2922 9.37833 19.4419L9.87833 19.7119C9.95825 20.9842 10.2986 22.2265 10.8783 23.3619C11.278 24.2189 11.7818 25.0233 12.3783 25.7569C12.4259 25.8171 12.4868 25.8656 12.5561 25.8986C12.6255 25.9315 12.7015 25.9481 12.7783 25.9469H14.5833C14.6247 25.9417 14.6642 25.9267 14.6985 25.9031C14.7328 25.8795 14.7609 25.848 14.7806 25.8112C14.8002 25.7745 14.8106 25.7336 14.8111 25.6919C14.8116 25.6502 14.8021 25.6091 14.7833 25.5719L14.6733 25.1819C14.6074 24.9884 14.5523 24.7915 14.5083 24.5919C14.9633 24.6719 15.5483 24.7469 15.9433 24.7819C16.4625 24.8224 16.9841 24.8224 17.5033 24.7819C17.6983 25.1319 17.8983 25.4469 18.0783 25.7069C18.1208 25.7699 18.1782 25.8216 18.2453 25.8573C18.3124 25.8931 18.3873 25.9118 18.4633 25.9119H20.0183C20.0692 25.9112 20.1192 25.8986 20.1644 25.8751C20.2095 25.8516 20.2485 25.8178 20.2781 25.7764C20.3078 25.7351 20.3274 25.6873 20.3352 25.637C20.3431 25.5867 20.339 25.5353 20.3233 25.4869C20.2083 25.1169 20.0583 24.6119 19.9683 24.3019C20.629 24.0916 21.2594 23.7957 21.8433 23.4219C21.9233 23.3669 22.0033 23.2919 22.0833 23.2269C21.665 23.099 21.2599 22.9316 20.8733 22.7269C20.7792 22.6778 20.7084 22.5934 20.6765 22.4921C20.6446 22.3908 20.6543 22.281 20.7033 22.1869C20.7524 22.0927 20.8368 22.0219 20.9381 21.9901C21.0394 21.9582 21.1492 21.9678 21.2433 22.0169C21.7439 22.2763 22.2795 22.4615 22.8333 22.5669C23.2768 22.632 23.7258 22.6521 24.1733 22.6269C24.2726 22.6228 24.3685 22.5893 24.4486 22.5305C24.5288 22.4717 24.5896 22.3904 24.6233 22.2969L25.4883 20.0769C25.5118 20.0136 25.5223 19.9463 25.5191 19.8788C25.5159 19.8114 25.499 19.7454 25.4696 19.6846C25.4402 19.6239 25.3987 19.5698 25.3478 19.5255C25.2969 19.4812 25.2375 19.4476 25.1733 19.4269V19.4269ZM14.5683 15.7869C14.5202 15.8041 14.4694 15.8125 14.4183 15.8119C14.32 15.8103 14.2253 15.7748 14.1503 15.7112C14.0753 15.6477 14.0247 15.5601 14.007 15.4634C13.9893 15.3667 14.0057 15.2669 14.0533 15.1809C14.101 15.0949 14.177 15.0281 14.2683 14.9919C15.3369 14.5947 16.4942 14.4995 17.6133 14.7169C17.671 14.7236 17.7266 14.742 17.7769 14.7711C17.8271 14.8001 17.8709 14.8391 17.9055 14.8857C17.9401 14.9323 17.9648 14.9855 17.978 15.042C17.9913 15.0985 17.9928 15.1571 17.9826 15.2142C17.9723 15.2713 17.9504 15.3257 17.9184 15.3741C17.8863 15.4224 17.8446 15.4637 17.796 15.4953C17.7473 15.527 17.6927 15.5483 17.6355 15.558C17.5783 15.5678 17.5197 15.5657 17.4633 15.5519C16.495 15.3631 15.4935 15.4444 14.5683 15.7869V15.7869ZM20.8283 18.8469C20.6859 18.8469 20.5467 18.8047 20.4283 18.7255C20.3099 18.6464 20.2176 18.534 20.1631 18.4024C20.1086 18.2709 20.0944 18.1261 20.1222 17.9864C20.1499 17.8468 20.2185 17.7185 20.3192 17.6178C20.4199 17.5171 20.5482 17.4485 20.6879 17.4207C20.8275 17.3929 20.9723 17.4072 21.1039 17.4617C21.2354 17.5162 21.3479 17.6085 21.427 17.7269C21.5061 17.8453 21.5483 17.9845 21.5483 18.1269C21.549 18.2214 21.531 18.3152 21.4954 18.4028C21.4599 18.4904 21.4074 18.5702 21.341 18.6375C21.2746 18.7048 21.1956 18.7584 21.1085 18.7952C21.0214 18.832 20.9279 18.8512 20.8333 18.8519L20.8283 18.8469Z" fill="#40BA93"/>
    <circle cx="15" cy="13" r="4" fill="#4F4F4F"/>
    <circle cx="15" cy="13" r="3" fill="#4F4F4F"/>
    <path d="M15.5996 14.2578C15.5996 14.1471 15.5645 14.056 15.4941 13.9844C15.4238 13.9115 15.3066 13.8464 15.1426 13.7891C14.9785 13.7305 14.8509 13.6764 14.7598 13.627C14.4564 13.4642 14.3047 13.2233 14.3047 12.9043C14.3047 12.6882 14.3704 12.5104 14.502 12.3711C14.6335 12.2318 14.8118 12.1491 15.0371 12.123V11.6973H15.3496V12.127C15.5762 12.1595 15.7513 12.2559 15.875 12.416C15.9987 12.5749 16.0605 12.7819 16.0605 13.0371H15.5879C15.5879 12.873 15.5508 12.7441 15.4766 12.6504C15.4036 12.5553 15.304 12.5078 15.1777 12.5078C15.0527 12.5078 14.9551 12.5417 14.8848 12.6094C14.8145 12.6771 14.7793 12.7741 14.7793 12.9004C14.7793 13.0137 14.8138 13.1048 14.8828 13.1738C14.9531 13.2415 15.0716 13.306 15.2383 13.3672C15.4049 13.4284 15.5358 13.485 15.6309 13.5371C15.7259 13.5892 15.806 13.6491 15.8711 13.7168C15.9362 13.7832 15.9863 13.86 16.0215 13.9473C16.0566 14.0345 16.0742 14.1367 16.0742 14.2539C16.0742 14.474 16.0065 14.6523 15.8711 14.7891C15.737 14.9258 15.5495 15.0065 15.3086 15.0312V15.4121H14.998V15.0332C14.7402 15.0046 14.5417 14.9121 14.4023 14.7559C14.2643 14.5996 14.1953 14.3926 14.1953 14.1348H14.6699C14.6699 14.2988 14.7109 14.4258 14.793 14.5156C14.8763 14.6055 14.9935 14.6504 15.1445 14.6504C15.293 14.6504 15.4056 14.6146 15.4824 14.543C15.5605 14.4714 15.5996 14.3763 15.5996 14.2578Z" fill="#40BA93"/>
    <circle cx="17" cy="19" r="16.5" stroke="url(#paint0_linear_13_354)"/>
    <defs>
        <linearGradient id="paint0_linear_13_354" x1="-2.23342e-06" y1="-3.5" x2="22" y2="39.5" gradientUnits="userSpaceOnUse">
            <stop stop-color="#4F4F4F"/>
            <stop offset="1" stop-color="#4F4F4F" stop-opacity="0"/>
        </linearGradient>
    </defs>
</svg>
