<svg id="Capa_1" data-name="Capa 1" xmlns="http://www.w3.org/2000/svg" viewBox="0 0 612 612"><defs><style>.cls-1{fill:#fff;}</style></defs><title>plugging-plugs-white</title><g id="Plugging"><path class="cls-1" d="M594.34,0Q572.1,22.23,549.86,44.48a155,155,0,0,1,17.66,17.66L612,17.66V0Z"/><path class="cls-1" d="M44.48,549.86Q22.24,572.09,0,594.34V612H17.66l44.48-44.48A155,155,0,0,1,44.48,549.86Z"/><path class="cls-1" d="M347.08,61.79l-53,53L280,100.65,262.3,118.31,493.69,349.7,511.35,332,497.22,317.9l53-53A143.63,143.63,0,0,0,347.08,61.79Z"/><path class="cls-1" d="M360.3,331.19Q321.43,370,282.58,408.91l17.66,17.66L378,348.85a12.49,12.49,0,1,0-17.66-17.66Z"/><path class="cls-1" d="M280.81,234a12.48,12.48,0,0,0-17.66,0l-77.72,77.72,17.66,17.66,77.72-77.72A12.48,12.48,0,0,0,280.81,234Z"/><path class="cls-1" d="M100.65,280l14.13,14.14-53,53A143.63,143.63,0,0,0,264.92,550.21l53-53L332,511.36l17.66-17.67L118.31,262.3Z"/></g></svg>