<?xml version="1.0" encoding="iso-8859-1"?>
<!-- Generator: Adobe Illustrator 18.1.1, SVG Export Plug-In . SVG Version: 6.00 Build 0)  -->
<svg version="1.1" id="Capa_1" xmlns="http://www.w3.org/2000/svg" xmlns:xlink="http://www.w3.org/1999/xlink" x="0px" y="0px"
	 viewBox="0 0 612 612" style="enable-background:new 0 0 612 612;" xml:space="preserve">
<g>
	<g id="Plugging">
		<path d="M594.337,0c-14.825,14.825-29.652,29.652-44.477,44.477c6.381,5.432,12.231,11.283,17.663,17.663
			C582.348,47.315,597.175,32.488,612,17.663c0-5.888,0-11.775,0-17.663C606.112,0,600.225,0,594.337,0z"/>
		<path d="M44.477,549.859C29.652,564.685,14.825,579.51,0,594.337c0,5.888,0,11.775,0,17.663c5.888,0,11.775,0,17.663,0
			c14.827-14.825,29.652-29.652,44.477-44.477C55.761,562.09,49.91,556.239,44.477,549.859z"/>
		<path d="M347.085,61.787c-17.663,17.663-35.326,35.326-52.989,52.989c-4.71-4.71-9.421-9.42-14.131-14.131
			c-5.888,5.888-11.775,11.775-17.663,17.663c77.129,77.129,154.259,154.259,231.388,231.388
			c5.888-5.888,11.775-11.775,17.663-17.663c-4.71-4.71-9.42-9.42-14.131-14.131c17.663-17.663,35.326-35.326,52.989-52.989
			c56.092-56.092,56.092-147.035,0-203.128C494.121,5.695,403.178,5.695,347.085,61.787z"/>
		<path d="M360.296,331.188c-25.906,25.906-51.813,51.813-77.718,77.718c5.888,5.888,11.775,11.775,17.663,17.663
			c25.906-25.906,51.813-51.813,77.718-77.718c4.877-4.877,4.877-12.786,0-17.663C373.081,326.311,365.174,326.311,360.296,331.188z
			"/>
		<path d="M280.812,234.041c-4.877-4.877-12.786-4.877-17.663,0c-25.906,25.906-51.813,51.813-77.718,77.718
			c5.888,5.888,11.775,11.775,17.663,17.663c25.906-25.906,51.813-51.813,77.718-77.718
			C285.689,246.826,285.689,238.919,280.812,234.041z"/>
		<path d="M100.647,279.965c4.71,4.71,9.42,9.42,14.131,14.131c-17.663,17.663-35.326,35.326-52.989,52.989
			c-56.092,56.092-56.092,147.035,0,203.128c56.092,56.092,147.035,56.092,203.128,0c17.663-17.663,35.326-35.326,52.989-52.989
			c4.71,4.71,9.42,9.42,14.131,14.131c5.888-5.888,11.775-11.775,17.663-17.663C272.57,416.562,195.44,339.433,118.311,262.303
			C112.422,268.19,106.534,274.077,100.647,279.965z"/>
	</g>
</g>
<g>
</g>
<g>
</g>
<g>
</g>
<g>
</g>
<g>
</g>
<g>
</g>
<g>
</g>
<g>
</g>
<g>
</g>
<g>
</g>
<g>
</g>
<g>
</g>
<g>
</g>
<g>
</g>
<g>
</g>
</svg>
