<svg width="18" height="18" viewBox="0 0 18 18" fill="none" xmlns="http://www.w3.org/2000/svg">
<path fill-rule="evenodd" clip-rule="evenodd" d="M4.21332 11.867C3.06662 10.3886 2.52619 8.52895 2.70198 6.66627C2.87777 4.80359 3.75657 3.07785 5.15961 1.84012C6.56264 0.602389 8.38451 -0.0543441 10.2546 0.00352345C12.1246 0.061391 13.9024 0.829512 15.2262 2.15162C16.5512 3.47465 17.3218 5.25311 17.3811 7.12459C17.4403 8.99607 16.7837 10.8197 15.5451 12.2239C14.3065 13.6281 12.579 14.5071 10.7148 14.6819C8.85054 14.8567 6.9898 14.314 5.51177 13.1645L5.47222 13.2059L1.57136 17.1077C1.48592 17.1931 1.38449 17.2609 1.27286 17.3071C1.16123 17.3534 1.04159 17.3772 0.920757 17.3772C0.799929 17.3772 0.680283 17.3534 0.568653 17.3071C0.457022 17.2609 0.355591 17.1931 0.270153 17.1077C0.184713 17.0223 0.116941 16.9208 0.0707035 16.8092C0.0244637 16.6976 0.000663757 16.5779 0.000663757 16.4571C0.000663757 16.3363 0.0244637 16.2166 0.0707035 16.105C0.116941 15.9934 0.184713 15.8919 0.270153 15.8065L4.17194 11.9056C4.18537 11.8924 4.19917 11.8795 4.21332 11.867ZM6.12237 3.45283C5.60317 3.96364 5.19025 4.57219 4.90742 5.24338C4.62459 5.91457 4.47744 6.63512 4.47448 7.36346C4.47151 8.0918 4.61278 8.81352 4.89014 9.48699C5.16749 10.1605 5.57545 10.7724 6.09047 11.2874C6.60549 11.8024 7.21738 12.2103 7.89085 12.4877C8.56432 12.7651 9.28604 12.9063 10.0144 12.9034C10.7427 12.9004 11.4633 12.7533 12.1345 12.4704C12.8057 12.1876 13.4142 11.7747 13.925 11.2555C14.9458 10.2179 15.5153 8.81899 15.5094 7.36346C15.5034 5.90793 14.9226 4.5137 13.8934 3.48447C12.8641 2.45525 11.4699 1.87441 10.0144 1.86848C8.55885 1.86256 7.15994 2.43202 6.12237 3.45283Z" fill="#40524C"/>
</svg>
