<svg width="22" height="29" viewBox="0 0 22 29" fill="none" xmlns="http://www.w3.org/2000/svg">
<path d="M8.70711 0.292892C8.31658 -0.0976314 7.68342 -0.0976315 7.29289 0.292892L0.928933 6.65685C0.538408 7.04738 0.538408 7.68054 0.928933 8.07107C1.31946 8.46159 1.95262 8.46159 2.34315 8.07107L8 2.41421L13.6569 8.07107C14.0474 8.46159 14.6805 8.46159 15.0711 8.07107C15.4616 7.68054 15.4616 7.04738 15.0711 6.65685L8.70711 0.292892ZM9 19L9 1L7 1L7 19L9 19Z" fill="#4F4F4F"/>
<path d="M14.7071 28.7071C14.3166 29.0976 13.6834 29.0976 13.2929 28.7071L6.92893 22.3431C6.53841 21.9526 6.53841 21.3195 6.92893 20.9289C7.31946 20.5384 7.95262 20.5384 8.34315 20.9289L14 26.5858L19.6569 20.9289C20.0474 20.5384 20.6805 20.5384 21.0711 20.9289C21.4616 21.3195 21.4616 21.9526 21.0711 22.3431L14.7071 28.7071ZM15 10L15 28L13 28L13 10L15 10Z" fill="#4F4F4F"/>
</svg>
