<svg width="1471" height="1479" viewBox="0 0 1471 1479" fill="none" xmlns="http://www.w3.org/2000/svg">
<mask id="path-1-inside-1" fill="white">
<rect x="879.252" y="24.1895" width="186.318" height="299.44" rx="5" transform="rotate(90 879.252 24.1895)"/>
</mask>
<rect x="879.252" y="24.1895" width="186.318" height="299.44" rx="5" transform="rotate(90 879.252 24.1895)" stroke="#FBBC1B" stroke-width="80" mask="url(#path-1-inside-1)"/>
<mask id="path-2-inside-2" fill="white">
<rect x="1444.87" y="889.238" width="186.318" height="299.44" rx="5" transform="rotate(-180 1444.87 889.238)"/>
</mask>
<rect x="1444.87" y="889.238" width="186.318" height="299.44" rx="5" transform="rotate(-180 1444.87 889.238)" stroke="#FBBC1B" stroke-width="80" mask="url(#path-2-inside-2)"/>
<mask id="path-3-inside-3" fill="white">
<rect x="200.523" y="889.238" width="186.318" height="299.44" rx="5" transform="rotate(-180 200.523 889.238)"/>
</mask>
<rect x="200.523" y="889.238" width="186.318" height="299.44" rx="5" transform="rotate(-180 200.523 889.238)" stroke="#FBBC1B" stroke-width="80" mask="url(#path-3-inside-3)"/>
<mask id="path-4-inside-4" fill="white">
<rect x="1423.89" y="511.516" width="186.318" height="299.44" rx="5" transform="rotate(150 1423.89 511.516)"/>
</mask>
<rect x="1423.89" y="511.516" width="186.318" height="299.44" rx="5" transform="rotate(150 1423.89 511.516)" stroke="#FBBC1B" stroke-width="80" mask="url(#path-4-inside-4)"/>
<mask id="path-5-inside-5" fill="white">
<rect x="346.256" y="1133.69" width="186.318" height="299.44" rx="5" transform="rotate(150 346.256 1133.69)"/>
</mask>
<rect x="346.256" y="1133.69" width="186.318" height="299.44" rx="5" transform="rotate(150 346.256 1133.69)" stroke="#FBBC1B" stroke-width="80" mask="url(#path-5-inside-5)"/>
<mask id="path-6-inside-6" fill="white">
<rect x="1216.87" y="194.889" width="186.318" height="299.44" rx="5" transform="rotate(120 1216.87 194.889)"/>
</mask>
<rect x="1216.87" y="194.889" width="186.318" height="299.44" rx="5" transform="rotate(120 1216.87 194.889)" stroke="#FBBC1B" stroke-width="80" mask="url(#path-6-inside-6)"/>
<mask id="path-7-inside-7" fill="white">
<rect x="501.535" y="45.1685" width="186.318" height="299.44" rx="5" transform="rotate(60 501.535 45.1685)"/>
</mask>
<rect x="501.535" y="45.1685" width="186.318" height="299.44" rx="5" transform="rotate(60 501.535 45.1685)" stroke="#FBBC1B" stroke-width="80" mask="url(#path-7-inside-7)"/>
<mask id="path-8-inside-8" fill="white">
<rect x="184.912" y="252.19" width="186.318" height="299.44" rx="5" transform="rotate(30 184.912 252.19)"/>
</mask>
<rect x="184.912" y="252.19" width="186.318" height="299.44" rx="5" transform="rotate(30 184.912 252.19)" stroke="#FBBC1B" stroke-width="80" mask="url(#path-8-inside-8)"/>
<mask id="path-9-inside-9" fill="white">
<rect x="1262.55" y="874.36" width="186.318" height="299.44" rx="5" transform="rotate(30 1262.55 874.36)"/>
</mask>
<rect x="1262.55" y="874.36" width="186.318" height="299.44" rx="5" transform="rotate(30 1262.55 874.36)" stroke="#FBBC1B" stroke-width="80" mask="url(#path-9-inside-9)"/>
<path d="M201.308 349.978C213.424 318.08 232.915 289.502 258.19 266.579C283.464 243.656 313.804 227.039 346.729 218.086L357.007 255.883C330.045 263.215 305.201 276.822 284.504 295.593C263.808 314.364 247.847 337.766 237.925 363.887L201.308 349.978Z" fill="#FBBC1B"/>
<path d="M81.9402 667.354C76.4842 633.672 79.0753 599.177 89.502 566.688C99.9287 534.199 117.895 504.638 141.932 480.422L169.732 508.016C150.049 527.846 135.336 552.053 126.798 578.658C118.26 605.262 116.138 633.509 120.606 661.091L81.9402 667.354Z" fill="#FBBC1B"/>
<path d="M1310.6 997.505C1333.93 972.601 1351.03 942.532 1360.51 909.755C1369.99 876.977 1371.58 842.421 1365.15 808.912L1326.68 816.293C1331.95 843.733 1330.64 872.03 1322.88 898.871C1315.12 925.712 1301.11 950.335 1282.01 970.728L1310.6 997.505Z" fill="#FBBC1B"/>
<path d="M138.138 1005.22C116.572 978.779 101.569 947.61 94.3539 914.26C87.1391 880.911 87.918 846.327 96.6267 813.336L134.499 823.334C127.368 850.349 126.73 878.669 132.638 905.978C138.546 933.287 150.832 958.811 168.492 980.464L138.138 1005.22Z" fill="#FBBC1B"/>
<path d="M1366.38 673.481C1374.13 640.251 1373.9 605.66 1365.72 572.533C1357.54 539.407 1341.64 508.686 1319.32 482.88L1289.7 508.507C1307.98 529.638 1321 554.795 1327.7 581.922C1334.39 609.048 1334.58 637.375 1328.23 664.586L1366.38 673.481Z" fill="#FBBC1B"/>
<path d="M1246.89 368.31C1236.99 335.658 1219.5 305.813 1195.86 281.214C1172.21 256.614 1143.08 237.959 1110.84 226.773L1098 263.778C1124.4 272.938 1148.25 288.214 1167.62 308.358C1186.98 328.502 1201.3 352.942 1209.41 379.68L1246.89 368.31Z" fill="#FBBC1B"/>
<path d="M984.198 157.11C959.295 133.784 929.226 116.683 896.448 107.202C863.67 97.7212 829.115 96.131 795.605 102.561L802.986 141.029C830.427 135.764 858.724 137.066 885.565 144.829C912.405 152.593 937.028 166.597 957.421 185.698L984.198 157.11Z" fill="#FBBC1B"/>
<path d="M660.166 107.991C626.936 100.242 592.344 100.466 559.218 108.644C526.091 116.822 495.37 132.723 469.565 155.046L495.191 184.67C516.323 166.39 541.48 153.369 568.606 146.672C595.733 139.975 624.059 139.792 651.27 146.137L660.166 107.991Z" fill="#FBBC1B"/>
<rect x="689.334" y="401.333" width="82.3333" height="120.333" fill="#FBBC1B"/>
<rect x="689.334" y="1022" width="82.3333" height="101.333" fill="#FBBC1B"/>
<path d="M838.488 887.84C838.488 864.09 830.077 845.783 813.254 832.918C796.678 820.053 766.62 807.065 723.078 793.953C679.536 780.841 644.901 766.245 619.172 750.164C569.94 719.24 545.324 678.914 545.324 629.188C545.324 585.646 563.013 549.773 598.391 521.57C634.016 493.367 680.155 479.266 736.809 479.266C774.413 479.266 807.935 486.193 837.375 500.047C866.815 513.901 889.947 533.693 906.77 559.422C923.592 584.904 932.004 613.23 932.004 644.402H838.488C838.488 616.199 829.582 594.181 811.77 578.348C794.204 562.267 768.97 554.227 736.066 554.227C705.389 554.227 681.516 560.783 664.445 573.895C647.622 587.007 639.211 605.314 639.211 628.816C639.211 648.608 648.365 665.184 666.672 678.543C684.979 691.655 715.161 704.52 757.219 717.137C799.276 729.507 833.046 743.732 858.527 759.812C884.009 775.646 902.688 793.953 914.562 814.734C926.438 835.268 932.375 859.389 932.375 887.098C932.375 932.124 915.057 967.996 880.422 994.715C846.034 1021.19 799.276 1034.42 740.148 1034.42C701.06 1034.42 665.064 1027.25 632.16 1012.9C599.504 998.302 574.022 978.263 555.715 952.781C537.655 927.299 528.625 897.612 528.625 863.719H622.512C622.512 894.396 632.655 918.146 652.941 934.969C673.228 951.792 702.297 960.203 740.148 960.203C772.805 960.203 797.297 953.647 813.625 940.535C830.201 927.176 838.488 909.611 838.488 887.84Z" fill="#FBBC1B"/>
</svg>
