<svg width="20" height="23" viewBox="0 0 20 23" fill="none" xmlns="http://www.w3.org/2000/svg">
<path d="M12.741 11.0405H3.68633V11.0403L3.67639 11.0407C3.47332 11.0488 3.27077 11.0147 3.0815 10.9407C2.89223 10.8667 2.72032 10.7543 2.57662 10.6105C2.43291 10.4668 2.3205 10.2949 2.24648 10.1057C2.17245 9.91639 2.13841 9.71384 2.14648 9.51077L2.14668 9.51078V9.50083V3.23706C2.14668 2.94738 2.26176 2.66957 2.46659 2.46473C2.67142 2.2599 2.94924 2.14482 3.23892 2.14482H12.3458L16.7673 6.56636H14.4242C14.1345 6.56636 13.8567 6.45128 13.6519 6.24645C13.4471 6.04161 13.332 5.7638 13.332 5.47412V4.13188C13.332 3.94692 13.2585 3.76953 13.1277 3.63874C12.9969 3.50795 12.8195 3.43447 12.6346 3.43447C12.4496 3.43447 12.2722 3.50795 12.1414 3.63874C12.0106 3.76953 11.9372 3.94692 11.9372 4.13188V5.47412V5.47442C11.9379 6.13371 12.2002 6.76577 12.6664 7.23195C13.1326 7.69814 13.7646 7.96039 14.4239 7.96118H14.4242H17.7535V13.975C17.7535 14.1599 17.827 14.3373 17.9578 14.4681C18.0886 14.5989 18.266 14.6724 18.4509 14.6724C18.6359 14.6724 18.8133 14.5989 18.9441 14.4681C19.0749 14.3373 19.1483 14.1599 19.1483 13.975V7.26383C19.1483 7.26381 19.1483 7.26379 19.1483 7.26377C19.1484 7.1714 19.1299 7.07997 19.094 6.99486M12.741 11.0405L14.9171 12.2312L13.129 14.0193C13.065 14.0851 12.9887 14.1376 12.9043 14.1738C12.8193 14.2104 12.7277 14.2296 12.6351 14.2304C12.5425 14.2312 12.4507 14.2136 12.365 14.1785C12.2793 14.1434 12.2014 14.0917 12.1359 14.0262C12.0704 13.9607 12.0187 13.8828 11.9836 13.7971L12.215 13.7025L11.9836 13.7971C11.9485 13.7114 11.9309 13.6196 11.9317 13.527C11.9325 13.4344 11.9517 13.3429 11.9883 13.2578C12.0245 13.1734 12.077 13.0971 12.1428 13.0331L12.7406 12.4353H3.69096C3.30203 12.4494 2.91434 12.3833 2.55199 12.2412C2.18814 12.0985 1.85767 11.8822 1.58131 11.6058C1.30495 11.3295 1.08864 10.999 0.945945 10.6352C0.803836 10.2728 0.737779 9.88513 0.751858 9.4962V3.23706V3.23676C0.752648 2.57747 1.0149 1.94541 1.48109 1.47923C1.94727 1.01304 2.57933 0.75079 3.23862 0.75L3.23892 0.75L12.6346 0.75H12.6346C12.8192 0.750039 12.9963 0.823272 13.127 0.953644L13.1272 0.953867L18.9436 6.77022L18.9437 6.77031C19.0079 6.83464 19.059 6.91093 19.094 6.99486M12.741 11.0405L12.1414 10.4404L12.1384 10.4374L12.1384 10.4373C12.0114 10.3058 11.9411 10.1296 11.9427 9.94678C11.9443 9.76392 12.0176 9.58901 12.1469 9.4597C12.2762 9.33039 12.4512 9.25705 12.634 9.25546C12.8169 9.25387 12.993 9.32417 13.1246 9.45121L13.1277 9.45422L13.1277 9.45425L14.9171 11.2437L12.741 11.0405ZM19.094 6.99486C19.0941 6.9951 19.0942 6.99533 19.0943 6.99556L18.8634 7.09152L19.0937 6.99416C19.0938 6.99439 19.0939 6.99463 19.094 6.99486ZM14.9173 12.231C14.9825 12.1659 15.034 12.0885 15.0689 12.0033L14.9173 12.231Z" fill="white" stroke="white" stroke-width="0.5"/>
<path d="M18.6357 16.0245L18.6355 16.0247C18.8533 16.3155 19.0106 16.647 19.0982 16.9997C19.1841 17.3458 19.201 17.7054 19.148 18.058V20.2388V20.2391C19.1472 20.8984 18.885 21.5305 18.4188 21.9967C17.9526 22.4628 17.3206 22.7251 16.6613 22.7259H16.661H3.2432C2.91364 22.7377 2.58515 22.6817 2.27812 22.5612C1.96957 22.4402 1.68934 22.2568 1.45499 22.0224C1.22063 21.7881 1.0372 21.5079 0.916185 21.1993C0.795763 20.8923 0.73973 20.5638 0.751545 20.2342V13.0802C0.751545 12.8953 0.825023 12.7179 0.955813 12.5871C1.0866 12.4563 1.26399 12.3828 1.44896 12.3828C1.63392 12.3828 1.81131 12.4563 1.9421 12.5871C2.07289 12.7179 2.14637 12.8953 2.14637 13.0802V20.2388V20.2522L2.14601 20.2521C2.13834 20.3959 2.161 20.5397 2.21252 20.6741C2.26405 20.8085 2.34328 20.9306 2.44507 21.0324L2.26829 21.2091L2.44507 21.0324C2.54686 21.1341 2.66893 21.2134 2.80335 21.2649C2.93777 21.3164 3.08153 21.3391 3.22528 21.3314L3.23861 21.3307V21.3311H16.661C16.9506 21.3311 17.2285 21.216 17.4333 21.0111C17.6381 20.8063 17.7532 20.5285 17.7532 20.2388V18.0021V18.0018H18.0032C18.0031 17.9723 18.0061 17.9429 18.0122 17.9141L18.6357 16.0245ZM18.6357 16.0245L18.6287 16.016C18.0992 15.3701 17.2672 15.0673 16.2136 15.0673H6.71186L7.311 14.4681L7.31103 14.4682L7.31405 14.465C7.44108 14.3335 7.51138 14.1573 7.50979 13.9745C7.5082 13.7916 7.43485 13.6167 7.30555 13.4874C7.17624 13.3581 7.00132 13.2847 6.81846 13.2832C6.63561 13.2816 6.45944 13.3519 6.3279 13.4789L6.32788 13.4789L6.32481 13.482L4.53533 15.2714C4.53529 15.2715 4.53524 15.2715 4.53519 15.2716C4.53518 15.2716 4.53517 15.2716 4.53516 15.2716C4.47006 15.3366 4.41856 15.4139 4.38366 15.4991C4.31334 15.6695 4.31333 15.8607 4.38363 16.0311C4.41852 16.1163 4.47003 16.1936 4.53516 16.2587C4.53517 16.2587 4.53518 16.2587 4.53519 16.2587C4.53524 16.2588 4.53529 16.2588 4.53533 16.2589L6.32481 18.0483L6.32478 18.0484L6.3279 18.0514C6.45944 18.1784 6.6356 18.2487 6.81846 18.2471C7.00132 18.2455 7.17624 18.1722 7.30555 18.0429C7.43485 17.9136 7.5082 17.7387 7.50979 17.5558C7.51138 17.3729 7.44108 17.1968 7.31405 17.0652L7.31407 17.0652L7.31108 17.0622L6.71149 16.4621H16.2136H16.2269L16.2403 16.4607C16.481 16.4348 16.7245 16.4622 16.9535 16.541C17.1751 16.6172 17.3779 16.7397 17.5483 16.9003C17.7416 17.1835 17.8197 17.53 17.7662 17.8691L18.6357 16.0245Z" fill="white" stroke="white" stroke-width="0.5"/>
</svg>
