<svg width="18" height="22" viewBox="0 0 18 22" fill="none" xmlns="http://www.w3.org/2000/svg">
<path d="M2.68633 11.1853H12.3442L11.3183 12.2112C11.2755 12.2525 11.2414 12.3019 11.218 12.3564C11.1945 12.411 11.1822 12.4697 11.1817 12.5291C11.1812 12.5886 11.1925 12.6475 11.215 12.7025C11.2375 12.7574 11.2707 12.8074 11.3127 12.8494C11.3547 12.8914 11.4047 12.9246 11.4597 12.9471C11.5146 12.9696 11.5736 12.9809 11.633 12.9804C11.6924 12.9799 11.7511 12.9676 11.8057 12.9441C11.8603 12.9207 11.9096 12.8866 11.9509 12.8439L13.7405 11.0542C13.7823 11.0125 13.8153 10.963 13.8376 10.9084C13.8829 10.7989 13.8829 10.676 13.8376 10.5665C13.8153 10.5119 13.7823 10.4623 13.7405 10.4207L11.9509 8.63103C11.8665 8.54953 11.7535 8.50443 11.6362 8.50545C11.5189 8.50647 11.4067 8.55352 11.3237 8.63648C11.2407 8.71943 11.1937 8.83165 11.1927 8.94896C11.1917 9.06627 11.2368 9.17929 11.3183 9.26367L12.3442 10.2905H2.68633C2.44878 10.2999 2.21184 10.2601 1.99044 10.1735C1.76903 10.0869 1.56795 9.95543 1.39984 9.78732C1.23173 9.61921 1.10025 9.41813 1.01365 9.19672C0.927057 8.97532 0.887232 8.73838 0.896682 8.50083V2.23706C0.896682 1.88108 1.0381 1.53967 1.28981 1.28796C1.54153 1.03624 1.88294 0.894824 2.23892 0.894824H11.4493L16.3709 5.81636H13.4242C13.0682 5.81636 12.7268 5.67494 12.4751 5.42323C12.2234 5.17151 12.082 4.8301 12.082 4.47412V3.13188C12.082 3.01322 12.0348 2.89942 11.9509 2.81552C11.867 2.73161 11.7532 2.68447 11.6346 2.68447C11.5159 2.68447 11.4021 2.73161 11.3182 2.81552C11.2343 2.89942 11.1872 3.01322 11.1872 3.13188V4.47412C11.1879 5.06721 11.4238 5.6358 11.8432 6.05518C12.2625 6.47455 12.8311 6.71047 13.4242 6.71118H17.0035V12.975C17.0035 13.0936 17.0507 13.2074 17.1346 13.2913C17.2185 13.3752 17.3323 13.4224 17.4509 13.4224C17.5696 13.4224 17.6834 13.3752 17.7673 13.2913C17.8512 13.2074 17.8983 13.0936 17.8983 12.975V6.26377C17.8984 6.20459 17.8865 6.14602 17.8634 6.09152C17.841 6.03749 17.8082 5.98839 17.7668 5.947L11.9504 0.130644C11.8666 0.047006 11.753 2.51615e-05 11.6346 0L2.23892 0C1.64583 0.000710427 1.07724 0.236628 0.657862 0.656005C0.238486 1.07538 0.00256844 1.64397 0.00185802 2.23706V8.50083C-0.0116438 8.85698 0.0485561 9.21209 0.178686 9.54389C0.308815 9.8757 0.50607 10.1771 0.758089 10.4291C1.01011 10.6811 1.31146 10.8783 1.64327 11.0085C1.97507 11.1386 2.33018 11.1988 2.68633 11.1853Z" fill="#0A0A0A"/>
<path d="M17.4354 15.1744C16.9692 14.6058 16.2216 14.3172 15.2136 14.3172H5.10831L6.13422 13.2913C6.21572 13.2069 6.26082 13.0939 6.2598 12.9766C6.25878 12.8593 6.21173 12.747 6.12877 12.6641C6.04582 12.5811 5.9336 12.5341 5.81629 12.5331C5.69898 12.532 5.58597 12.5771 5.50158 12.6586L3.71193 14.4483C3.67018 14.4899 3.63717 14.5395 3.61485 14.5941C3.5696 14.7036 3.5696 14.8265 3.61485 14.936C3.63717 14.9906 3.67018 15.0401 3.71193 15.0818L5.50158 16.8715C5.58597 16.953 5.69898 16.9981 5.81629 16.997C5.9336 16.996 6.04582 16.949 6.12877 16.866C6.21173 16.7831 6.25878 16.6708 6.2598 16.5535C6.26082 16.4362 6.21572 16.3232 6.13422 16.2388L5.10831 15.212H15.2136C15.4908 15.1822 15.7712 15.2138 16.0348 15.3045C16.2985 15.3952 16.539 15.5428 16.7392 15.7368C16.9809 16.0783 17.0789 16.501 17.0122 16.914C17.0061 16.9428 17.0031 16.9722 17.0032 17.0017V19.2387C17.0032 19.5947 16.8618 19.9361 16.6101 20.1878C16.3584 20.4395 16.017 20.581 15.661 20.581H2.23861C2.05983 20.5905 1.88105 20.5623 1.71387 20.4982C1.5467 20.4342 1.39489 20.3356 1.26829 20.209C1.1417 20.0824 1.04316 19.9306 0.979083 19.7635C0.915006 19.5963 0.886824 19.4175 0.89637 19.2387V12.0801C0.89637 11.9615 0.849232 11.8477 0.765325 11.7638C0.681419 11.6799 0.567619 11.6327 0.448957 11.6327C0.330296 11.6327 0.216495 11.6799 0.132589 11.7638C0.0486834 11.8477 0.00154536 11.9615 0.00154536 12.0801V19.2387C-0.00969498 19.5355 0.0404792 19.8314 0.148924 20.1079C0.25737 20.3844 0.421749 20.6355 0.631763 20.8456C0.841777 21.0556 1.0929 21.22 1.3694 21.3284C1.6459 21.4368 1.94181 21.487 2.23861 21.4758H15.661C16.2541 21.4751 16.8226 21.2392 17.242 20.8198C17.6614 20.4004 17.8973 19.8318 17.898 19.2387V17.0388C17.9494 16.7129 17.935 16.38 17.8555 16.0598C17.7761 15.7395 17.6332 15.4385 17.4354 15.1744Z" fill="#0A0A0A"/>
</svg>
