<svg width="226" height="226" viewBox="0 0 226 226" fill="none" xmlns="http://www.w3.org/2000/svg">
    <path d="M113 11.5556C113 5.17361 107.813 -0.0612408 101.464 0.590198C79.0719 2.88786 57.7783 11.8359 40.3955 26.4114C20.0488 43.4721 6.35986 67.1531 1.73057 93.2994C-2.89871 119.446 1.82733 146.387 15.0795 169.397C28.3316 192.406 49.2634 210.014 74.2022 219.131C99.1409 228.247 126.494 228.291 151.461 219.253C176.429 210.215 197.416 192.674 210.741 169.707C224.066 146.739 228.878 119.813 224.331 93.6522C220.447 71.3023 209.945 50.7307 194.314 34.5332C189.883 29.9408 182.542 30.5958 178.426 35.4731C174.31 40.3504 174.993 47.5961 179.302 52.3035C190.843 64.91 198.608 80.6132 201.561 97.6093C205.178 118.42 201.351 139.839 190.751 158.109C180.151 176.379 163.456 190.333 143.595 197.522C123.734 204.711 101.975 204.677 82.1372 197.424C62.299 190.172 45.6483 176.166 35.1066 157.862C24.5648 139.559 20.8053 118.127 24.4878 97.3286C28.1703 76.5299 39.0595 57.6922 55.2448 44.1208C68.4636 33.0369 84.5254 26.0439 101.476 23.8528C107.805 23.0346 113 17.9376 113 11.5556Z" fill="#40BA93"/>
</svg>
