<svg width="15" height="14" viewBox="0 0 15 14" fill="none" xmlns="http://www.w3.org/2000/svg">
<path fill-rule="evenodd" clip-rule="evenodd" d="M10.7944 9.03918C11.6675 7.9131 12.079 6.49657 11.9452 5.07775C11.8113 3.65893 11.1422 2.34442 10.0739 1.40163C9.00564 0.458844 7.61846 -0.0413943 6.19459 0.00268384C4.77072 0.046762 3.41711 0.631846 2.40915 1.63891C1.40031 2.64666 0.813546 4.00133 0.768433 5.42685C0.723319 6.85238 1.22325 8.24146 2.16635 9.31104C3.10945 10.3806 4.42474 11.0502 5.84418 11.1833C7.26362 11.3165 8.68039 10.9031 9.80578 10.0275L9.83589 10.059L12.806 13.0311C12.8711 13.0961 12.9483 13.1478 13.0333 13.183C13.1183 13.2182 13.2094 13.2363 13.3014 13.2363C13.3934 13.2363 13.4845 13.2182 13.5695 13.183C13.6545 13.1478 13.7317 13.0961 13.7968 13.0311C13.8618 12.966 13.9134 12.8887 13.9486 12.8037C13.9838 12.7187 14.002 12.6275 14.002 12.5355C14.002 12.4435 13.9838 12.3523 13.9486 12.2673C13.9134 12.1823 13.8618 12.105 13.7968 12.0399L10.8259 9.0686C10.8157 9.05851 10.8052 9.0487 10.7944 9.03918ZM9.34086 2.63005C9.73618 3.01913 10.0506 3.48267 10.2659 3.99392C10.4813 4.50517 10.5933 5.05402 10.5956 5.6088C10.5978 6.16359 10.4903 6.71333 10.2791 7.22631C10.0679 7.7393 9.75729 8.20539 9.36515 8.59768C8.97301 8.98997 8.50712 9.30072 7.99433 9.51198C7.48155 9.72324 6.93203 9.83085 6.37746 9.82859C5.8229 9.82633 5.27427 9.71425 4.76323 9.49882C4.25218 9.28338 3.78883 8.96886 3.39989 8.57338C2.62265 7.78305 2.18905 6.71749 2.19357 5.6088C2.19808 4.50011 2.64033 3.43812 3.42399 2.65415C4.20764 1.87018 5.26921 1.42775 6.37746 1.42324C7.48571 1.41872 8.55085 1.85249 9.34086 2.63005Z" fill="#5D5D65"/>
</svg>
