<svg width="18" height="18" viewBox="0 0 18 18" fill="none" xmlns="http://www.w3.org/2000/svg">
<path d="M2.5 0C1.83696 0 1.20107 0.263392 0.732233 0.732233C0.263392 1.20107 0 1.83696 0 2.5V15.5C0 16.163 0.263392 16.7989 0.732233 17.2678C1.20107 17.7366 1.83696 18 2.5 18H15.5C16.163 18 16.7989 17.7366 17.2678 17.2678C17.7366 16.7989 18 16.163 18 15.5V2.5C18 1.83696 17.7366 1.20107 17.2678 0.732233C16.7989 0.263392 16.163 0 15.5 0H2.5ZM13.53 8.72C13.6573 8.84705 13.7347 9.0156 13.7481 9.19493C13.7615 9.37427 13.71 9.55245 13.603 9.697L13.53 9.781L9.53 13.781C9.40295 13.9083 9.2344 13.9857 9.05507 13.9991C8.87573 14.0125 8.69755 13.961 8.553 13.854L8.469 13.782L4.469 9.78C4.33604 9.646 4.2585 9.46679 4.25186 9.27814C4.24522 9.08949 4.30996 8.90527 4.43316 8.76225C4.55636 8.61923 4.72896 8.52793 4.91652 8.50656C5.10408 8.4852 5.29279 8.53535 5.445 8.647L5.53 8.72L8.25 11.442V4.75C8.25001 4.56876 8.31564 4.39366 8.43477 4.25707C8.55389 4.12048 8.71845 4.03165 8.898 4.007L9 4C9.18124 4.00001 9.35634 4.06564 9.49293 4.18477C9.62952 4.30389 9.71835 4.46845 9.743 4.648L9.75 4.75V11.44L12.47 8.72C12.5971 8.59313 12.7655 8.51609 12.9446 8.50288C13.1237 8.48966 13.3016 8.54116 13.446 8.648L13.53 8.72Z" fill="#DB1A1A"/>
</svg>
