<svg width="18" height="18" viewBox="0 0 18 18" fill="none" xmlns="http://www.w3.org/2000/svg">
<path d="M2.5 18C1.83696 18 1.20107 17.7366 0.732233 17.2678C0.263392 16.7989 0 16.163 0 15.5V2.5C0 1.83696 0.263392 1.20107 0.732233 0.732233C1.20107 0.263391 1.83696 0 2.5 0H15.5C16.163 0 16.7989 0.263391 17.2678 0.732233C17.7366 1.20107 18 1.83696 18 2.5V15.5C18 16.163 17.7366 16.7989 17.2678 17.2678C16.7989 17.7366 16.163 18 15.5 18H2.5ZM13.53 9.28C13.6573 9.15295 13.7347 8.9844 13.7481 8.80507C13.7615 8.62573 13.71 8.44755 13.603 8.303L13.53 8.219L9.53 4.219C9.40295 4.09172 9.2344 4.01433 9.05507 4.00093C8.87573 3.98753 8.69755 4.03901 8.553 4.146L8.469 4.218L4.469 8.22C4.33604 8.354 4.2585 8.53321 4.25186 8.72186C4.24522 8.91051 4.30996 9.09473 4.43316 9.23775C4.55636 9.38077 4.72896 9.47207 4.91652 9.49344C5.10408 9.5148 5.29279 9.46465 5.445 9.353L5.53 9.28L8.25 6.558V13.25C8.25001 13.4312 8.31564 13.6063 8.43477 13.7429C8.55389 13.8795 8.71845 13.9684 8.898 13.993L9 14C9.18124 14 9.35634 13.9344 9.49293 13.8152C9.62952 13.6961 9.71835 13.5316 9.743 13.352L9.75 13.25V6.56L12.47 9.28C12.5971 9.40687 12.7655 9.48391 12.9446 9.49712C13.1237 9.51034 13.3016 9.45884 13.446 9.352L13.53 9.28Z" fill="#03CE48"/>
</svg>
