<svg width="17" height="18" viewBox="0 0 17 18" fill="none" xmlns="http://www.w3.org/2000/svg">
<path d="M8.5 0C9.62717 0 10.7082 0.450688 11.5052 1.25292C12.3022 2.05515 12.75 3.1432 12.75 4.27773C12.75 5.41225 12.3022 6.50031 11.5052 7.30254C10.7082 8.10476 9.62717 8.55545 8.5 8.55545C7.37283 8.55545 6.29183 8.10476 5.4948 7.30254C4.69777 6.50031 4.25 5.41225 4.25 4.27773C4.25 3.1432 4.69777 2.05515 5.4948 1.25292C6.29183 0.450688 7.37283 0 8.5 0ZM8.5 10.6943C13.1962 10.6943 17 12.6086 17 14.972V17.1109H0V14.972C0 12.6086 3.80375 10.6943 8.5 10.6943Z" fill="white" fill-opacity="0.61"/>
</svg>
