<svg width="22" height="22" viewBox="0 0 22 22" fill="none" xmlns="http://www.w3.org/2000/svg">
<path d="M10.4211 0H9.26316C6.80641 0 4.45029 0.975937 2.71312 2.71312C0.975937 4.45029 0 6.80641 0 9.26316V10.4211H10.4211V0ZM9.26316 9.26316H1.15789C1.15789 7.11351 2.01184 5.0519 3.53187 3.53187C5.0519 2.01184 7.11351 1.15789 9.26316 1.15789V9.26316ZM12.7368 12.7368H3.47368C3.47368 14.5689 4.01696 16.3599 5.03481 17.8832C6.05266 19.4065 7.49936 20.5938 9.19198 21.2949C10.8846 21.996 12.7471 22.1794 14.544 21.822C16.3409 21.4646 17.9914 20.5824 19.2869 19.2869C20.5824 17.9914 21.4646 16.3409 21.822 14.544C22.1794 12.7471 21.996 10.8846 21.2949 9.19198C20.5938 7.49936 19.4065 6.05266 17.8832 5.03481C16.3599 4.01696 14.5689 3.47368 12.7368 3.47368V12.7368ZM13.8947 13.8947V4.71263C15.9198 5.00938 17.7578 6.06107 19.0397 7.65664C20.3216 9.25222 20.9526 11.2736 20.806 13.3151C20.6595 15.3566 19.7462 17.2671 18.2496 18.6632C16.7529 20.0593 14.7836 20.8377 12.7368 20.8421C10.7875 20.8424 8.90337 20.1402 7.42965 18.8642C5.95593 17.5883 4.99134 15.824 4.71263 13.8947H13.8947Z" fill="white" fill-opacity="0.61"/>
</svg>
