<svg width="19" height="21" viewBox="0 0 19 21" fill="none" xmlns="http://www.w3.org/2000/svg">
<path d="M9.5 0C4.25125 0 0 2.08833 0 4.66667C0 7.245 4.25125 9.33333 9.5 9.33333C14.7487 9.33333 19 7.245 19 4.66667C19 2.08833 14.7487 0 9.5 0ZM0 7V10.5C0 13.0783 4.25125 15.1667 9.5 15.1667C14.7487 15.1667 19 13.0783 19 10.5V7C19 9.57833 14.7487 11.6667 9.5 11.6667C4.25125 11.6667 0 9.57833 0 7ZM0 12.8333V16.3333C0 18.9117 4.25125 21 9.5 21C14.7487 21 19 18.9117 19 16.3333V12.8333C19 15.4117 14.7487 17.5 9.5 17.5C4.25125 17.5 0 15.4117 0 12.8333Z" fill="white" fill-opacity="0.61"/>
</svg>
