<svg width="20" height="20" viewBox="0 0 20 20" fill="none" xmlns="http://www.w3.org/2000/svg">
<path d="M4.67247 0.249207L0.240704 3.2851C-0.267598 3.62242 0.0818595 4.21001 0.79666 4.21001H3.63998V10.7497C3.63998 11.3482 4.35478 11.8378 5.22842 11.8378C6.10207 11.8378 6.81687 11.3482 6.81687 10.7497V4.21001H9.66018C10.375 4.21001 10.7244 3.62242 10.2161 3.2851L5.78438 0.249207C5.63572 0.149777 5.43619 0.0941162 5.22842 0.0941162C5.02065 0.0941162 4.82113 0.149777 4.67247 0.249207ZM16.3475 15.1131V8.57342C16.3475 7.97495 15.6327 7.48529 14.7591 7.48529C13.8854 7.48529 13.1706 7.97495 13.1706 8.57342V15.1131H10.3273C9.61253 15.1131 9.26307 15.7007 9.77138 16.038L14.2031 19.063C14.5208 19.2698 15.0132 19.2698 15.3309 19.063L19.7627 16.038C20.271 15.7007 19.9057 15.1131 19.2067 15.1131H16.3475Z" fill="white" fill-opacity="0.61"/>
</svg>
