<svg width="25" height="26" viewBox="0 0 25 26" fill="none" xmlns="http://www.w3.org/2000/svg">
<path fill-rule="evenodd" clip-rule="evenodd" d="M12.5905 0C9.32816 0 6.35614 1.07758 4.59748 1.95799C4.43859 2.03744 4.29053 2.11544 4.15258 2.19056C3.87957 2.33934 3.64701 2.47801 3.46212 2.60007L5.46273 5.54536L6.40453 5.92021C10.0851 7.77709 15.0209 7.77709 18.7021 5.92021L19.771 5.36553L21.6626 2.60007C21.2708 2.34443 20.8634 2.11359 20.4427 1.90888C18.6927 1.03786 15.7915 0 12.5912 0H12.5905ZM7.93785 3.33386C7.22941 3.2013 6.52971 3.02571 5.84263 2.80807C7.49006 2.07644 9.94495 1.30003 12.5905 1.30003C14.4228 1.30003 16.1555 1.67271 17.5884 2.14506C15.9092 2.38123 14.1173 2.78207 12.41 3.27536C11.0666 3.66393 9.49644 3.62204 7.93785 3.33386ZM19.4648 6.99129L19.2871 7.08085C15.2383 9.12335 9.86767 9.12335 5.81879 7.08085L5.65051 6.99562C-0.432203 13.6699 -5.07621 25.9985 12.5905 25.9985C30.2572 25.9985 25.4998 13.4395 19.4648 6.99129ZM11.8401 13.0003C11.457 13.0003 11.0896 13.1525 10.8187 13.4234C10.5478 13.6943 10.3956 14.0617 10.3956 14.4448C10.3956 14.8279 10.5478 15.1953 10.8187 15.4662C11.0896 15.7371 11.457 15.8893 11.8401 15.8893V13.0003ZM13.2846 11.5559V10.8336H11.8401V11.5559C11.0739 11.5559 10.3391 11.8602 9.79731 12.402C9.25552 12.9438 8.95115 13.6786 8.95115 14.4448C8.95115 15.211 9.25552 15.9458 9.79731 16.4876C10.3391 17.0294 11.0739 17.3338 11.8401 17.3338V20.2227C11.2118 20.2227 10.6766 19.8219 10.4772 19.26C10.4477 19.1681 10.4 19.083 10.3369 19.0098C10.2739 18.9367 10.1969 18.8769 10.1103 18.834C10.0238 18.7911 9.92953 18.7661 9.83313 18.7602C9.73674 18.7544 9.64016 18.768 9.5491 18.8002C9.45805 18.8324 9.37437 18.8825 9.30302 18.9475C9.23167 19.0126 9.17409 19.0913 9.13369 19.1791C9.0933 19.2668 9.0709 19.3617 9.06783 19.4582C9.06476 19.5547 9.08108 19.6509 9.11582 19.741C9.31504 20.3043 9.684 20.7921 10.1719 21.137C10.6598 21.482 11.2426 21.6672 11.8401 21.6672V22.3895H13.2846V21.6672C14.0508 21.6672 14.7856 21.3629 15.3274 20.8211C15.8692 20.2793 16.1736 19.5445 16.1736 18.7783C16.1736 18.0121 15.8692 17.2772 15.3274 16.7355C14.7856 16.1937 14.0508 15.8893 13.2846 15.8893V13.0003C13.9129 13.0003 14.4481 13.4012 14.6475 13.9631C14.677 14.055 14.7247 14.1401 14.7878 14.2132C14.8508 14.2864 14.9279 14.3462 15.0144 14.3891C15.1009 14.4319 15.1952 14.457 15.2916 14.4628C15.388 14.4686 15.4845 14.455 15.5756 14.4229C15.6667 14.3907 15.7503 14.3406 15.8217 14.2755C15.893 14.2105 15.9506 14.1317 15.991 14.044C16.0314 13.9563 16.0538 13.8614 16.0569 13.7649C16.0599 13.6683 16.0436 13.5722 16.0089 13.4821C15.8097 12.9187 15.4407 12.431 14.9528 12.0861C14.4649 11.7411 13.8821 11.5559 13.2846 11.5559ZM13.2846 17.3338V20.2227C13.6677 20.2227 14.0351 20.0706 14.306 19.7997C14.5769 19.5288 14.7291 19.1614 14.7291 18.7783C14.7291 18.3952 14.5769 18.0278 14.306 17.7569C14.0351 17.486 13.6677 17.3338 13.2846 17.3338Z" fill="#4F4F4F"/>
</svg>
