<svg width="17" height="20" viewBox="0 0 17 20" fill="none" xmlns="http://www.w3.org/2000/svg">
<path d="M3.24442 0.909091C3.24442 0.409091 2.90447 0 2.48898 0C2.07349 0 1.73354 0.409091 1.73354 0.909091V4.54545H0.222656V13.6364C0.222656 14.8182 0.857227 15.8182 1.73354 16.2V20H3.24442V16.2C4.12074 15.8182 4.75531 14.8182 4.75531 13.6364V4.54545H3.24442V0.909091ZM2.48898 14.5455C2.07349 14.5455 1.73354 14.1364 1.73354 13.6364V11.8182H3.24442V13.6364C3.24442 14.1364 2.90447 14.5455 2.48898 14.5455ZM1.73354 10V6.36364H3.24442V10H1.73354ZM9.28796 0.909091C9.28796 0.409091 8.94801 0 8.53252 0C8.11702 0 7.77707 0.409091 7.77707 0.909091V4.54545H6.26619V13.6364C6.26619 14.8182 6.90076 15.8182 7.77707 16.2V20H9.28796V16.2C10.1643 15.8182 10.7988 14.8182 10.7988 13.6364V4.54545H9.28796V0.909091ZM8.53252 14.5455C8.11702 14.5455 7.77707 14.1364 7.77707 13.6364V11.8182H9.28796V13.6364C9.28796 14.1364 8.94801 14.5455 8.53252 14.5455ZM7.77707 10V6.36364H9.28796V10H7.77707ZM15.3315 4.54545V0.909091C15.3315 0.409091 14.9915 0 14.576 0C14.1606 0 13.8206 0.409091 13.8206 0.909091V4.54545H12.3097V13.6364C12.3097 14.8182 12.9443 15.8182 13.8206 16.2V20H15.3315V16.2C16.2078 15.8182 16.8424 14.8182 16.8424 13.6364V4.54545H15.3315ZM14.576 14.5455C14.1606 14.5455 13.8206 14.1364 13.8206 13.6364V11.8182H15.3315V13.6364C15.3315 14.1364 14.9915 14.5455 14.576 14.5455ZM13.8206 10V6.36364H15.3315V10H13.8206Z" fill="white"/>
</svg>
